<?xml version="1.0" encoding="UTF-8"?>
<svg xmlns="http://www.w3.org/2000/svg" xmlns:xlink="http://www.w3.org/1999/xlink" width="300px" height="91px" viewBox="0 0 299 91" version="1.1">
<g id="surface1">
<path style=" stroke:none;fill-rule:nonzero;fill:rgb(2.745098%,14.509805%,26.274511%);fill-opacity:1;" d="M 226.589844 2.617188 L 226.589844 54.761719 C 226.589844 59.582031 227.675781 63.078125 229.855469 65.265625 C 232.027344 67.449219 235.628906 68.535156 240.628906 68.535156 C 242.683594 68.535156 244.429688 68.414062 245.871094 68.15625 C 247.3125 67.898438 248.800781 67.480469 250.34375 66.898438 L 250.34375 56.398438 C 248.992188 56.847656 247.460938 57.070312 245.726562 57.070312 C 244.453125 57.070312 243.523438 56.800781 242.941406 56.253906 C 242.371094 55.703125 242.082031 54.695312 242.082031 53.214844 L 242.082031 2.617188 Z M 2.566406 5.507812 L 2.566406 67.570312 L 48.242188 67.570312 L 48.242188 55.625 L 18.046875 55.625 L 18.046875 42.613281 L 44.695312 42.613281 L 44.695312 30.464844 L 18.054688 30.464844 L 18.054688 17.457031 L 48.25 17.457031 L 48.25 5.507812 Z M 87.101562 20.929688 C 84.082031 20.929688 81.152344 21.398438 78.300781 22.332031 C 75.449219 23.261719 73.03125 24.4375 71.042969 25.851562 L 70.5625 21.890625 L 56.113281 21.890625 L 56.113281 67.582031 L 71.601562 67.582031 L 71.601562 36.449219 C 72.753906 35.296875 74.195312 34.332031 75.929688 33.558594 C 77.664062 32.785156 79.363281 32.40625 81.027344 32.40625 C 83.78125 32.40625 85.726562 32.953125 86.84375 34.039062 C 87.972656 35.128906 88.535156 36.964844 88.535156 39.53125 L 88.535156 67.570312 L 104.023438 67.570312 L 104.023438 38.277344 C 104.023438 32.359375 102.667969 27.988281 99.941406 25.164062 C 97.210938 22.339844 92.941406 20.929688 87.101562 20.929688 Z M 142.402344 20.929688 C 136.835938 20.929688 132.046875 22.578125 128.078125 25.851562 L 127.304688 21.890625 L 113.828125 21.890625 L 113.828125 88.382812 L 129.320312 88.382812 L 129.320312 65.542969 C 132.71875 67.539062 136.824219 68.535156 141.632812 68.535156 C 148.488281 68.535156 153.84375 66.441406 157.691406 62.226562 C 161.539062 58.011719 163.460938 51.859375 163.460938 43.765625 C 163.460938 28.539062 156.449219 20.929688 142.402344 20.929688 Z M 193.859375 20.941406 C 190.390625 20.941406 187.027344 21.21875 183.761719 21.804688 C 180.496094 22.386719 177.699219 23.125 175.394531 24.023438 L 175.394531 34.039062 C 180.394531 32.4375 185.492188 31.628906 190.683594 31.628906 C 194.855469 31.628906 197.714844 32.113281 199.292969 33.078125 C 200.871094 34.042969 201.652344 35.710938 201.652344 38.085938 L 201.652344 39.140625 L 188.960938 39.140625 C 182.730469 39.140625 178 40.460938 174.769531 43.097656 C 171.535156 45.730469 169.914062 49.429688 169.914062 54.179688 C 169.914062 58.796875 171.433594 62.351562 174.476562 64.828125 C 177.519531 67.304688 181.378906 68.535156 186.066406 68.558594 C 193.246094 68.558594 198.601562 66.957031 202.125 63.738281 L 202.894531 67.59375 L 216.460938 67.59375 L 216.460938 39.0625 C 216.460938 32.898438 214.503906 28.339844 210.589844 25.378906 C 206.6875 22.421875 201.105469 20.941406 193.859375 20.941406 Z M 137.976562 32.292969 C 141.441406 32.292969 143.925781 33.097656 145.433594 34.703125 C 146.945312 36.316406 147.695312 39.242188 147.695312 43.476562 C 147.695312 47.980469 146.84375 51.390625 145.144531 53.699219 C 143.441406 56.007812 140.960938 57.171875 137.683594 57.160156 C 135.894531 57.160156 134.371094 56.925781 133.121094 56.441406 C 131.867188 55.949219 130.605469 55.234375 129.320312 54.269531 L 129.320312 35.765625 C 131.824219 33.449219 134.710938 32.292969 137.976562 32.292969 Z M 190.683594 48.105469 L 201.644531 48.105469 L 201.644531 54.5625 C 199.148438 57.519531 195.582031 59 190.972656 59 C 186.230469 59 183.859375 57.195312 183.859375 53.597656 C 183.859375 51.738281 184.417969 50.347656 185.539062 49.449219 C 186.65625 48.554688 188.378906 48.105469 190.683594 48.105469 Z M 190.683594 48.105469 "/>
<path style=" stroke:none;fill-rule:nonzero;fill:rgb(100%,69.01961%,0%);fill-opacity:1;" d="M 296.433594 58.695312 C 296.433594 52.222656 291.195312 46.972656 284.734375 46.972656 C 278.273438 46.972656 273.035156 52.222656 273.035156 58.695312 C 273.035156 65.171875 278.273438 70.417969 284.734375 70.417969 C 291.195312 70.417969 296.433594 65.171875 296.433594 58.695312 Z M 296.433594 58.695312 "/>
</g>
</svg>
